HIERARCHY
ROOT RootJoint
{
    OFFSET   0.000000   0.000000   0.000000
    CHANNELS 6 Xposition Yposition Zposition Xrotation Yrotation Zrotation
    JOINT pelvis_lowerback
    {
        OFFSET   0.000000   0.093605   0.000000
        CHANNELS 3 Xrotation Yrotation Zrotation
        JOINT lowerback_torso
        {
            OFFSET   0.000000   0.100000   0.000000
            CHANNELS 3 Xrotation Yrotation Zrotation
            JOINT torso_head
            {
                OFFSET   0.000000   0.282350   0.000000
                CHANNELS 3 Xrotation Yrotation Zrotation
                End Site
                {
                    OFFSET   0.000000   0.192650   0.000000
                }
            }
            JOINT rTorso_Clavicle
            {
                OFFSET  -0.001000   0.157500   0.000000
                CHANNELS 3 Xrotation Yrotation Zrotation
                JOINT rShoulder
                {
                    OFFSET  -0.117647   0.000000   0.000000
                    CHANNELS 3 Xrotation Yrotation Zrotation
                    JOINT rElbow
                    {
                        OFFSET  -0.245000   0.000000   0.000000
                        CHANNELS 3 Xrotation Yrotation Zrotation
                        JOINT rWrist
                        {
                            OFFSET  -0.240000   0.000000   0.000000
                            CHANNELS 3 Xrotation Yrotation Zrotation
                            End Site
                            {
                                OFFSET  -0.116353  -0.002500   0.000000
                            }
                        }
                    }
                }
            }
            JOINT lTorso_Clavicle
            {
                OFFSET   0.001000   0.157500   0.000000
                CHANNELS 3 Xrotation Yrotation Zrotation
                JOINT lShoulder
                {
                    OFFSET   0.117647   0.000000   0.000000
                    CHANNELS 3 Xrotation Yrotation Zrotation
                    JOINT lElbow
                    {
                        OFFSET   0.245000   0.000000   0.000000
                        CHANNELS 3 Xrotation Yrotation Zrotation
                        JOINT lWrist
                        {
                            OFFSET   0.240000   0.000000   0.000000
                            CHANNELS 3 Xrotation Yrotation Zrotation
                            End Site
                            {
                                OFFSET   0.116353  -0.002500   0.000000
                            }
                        }
                    }
                }
            }
        }
    }
    JOINT rHip
    {
        OFFSET  -0.100000  -0.051395   0.000000
        CHANNELS 3 Xrotation Yrotation Zrotation
        JOINT rKnee
        {
            OFFSET   0.000000  -0.410000   0.000000
            CHANNELS 3 Xrotation Yrotation Zrotation
            JOINT rAnkle
            {
                OFFSET   0.000000  -0.390000   0.000000
                CHANNELS 3 Xrotation Yrotation Zrotation
                JOINT rToeJoint
                {
                    OFFSET   0.000000  -0.050000   0.130000
                    CHANNELS 3 Xrotation Yrotation Zrotation
                    End Site
                    {
                        OFFSET  -0.010000   0.002000   0.060000
                    }
                }
            }
        }
    }
    JOINT lHip
    {
        OFFSET   0.100000  -0.051395   0.000000
        CHANNELS 3 Xrotation Yrotation Zrotation
        JOINT lKnee
        {
            OFFSET   0.000000  -0.410000   0.000000
            CHANNELS 3 Xrotation Yrotation Zrotation
            JOINT lAnkle
            {
                OFFSET   0.000000  -0.390000   0.000000
                CHANNELS 3 Xrotation Yrotation Zrotation
                JOINT lToeJoint
                {
                    OFFSET   0.000000  -0.050000   0.130000
                    CHANNELS 3 Xrotation Yrotation Zrotation
                    End Site
                    {
                        OFFSET   0.010000   0.002000   0.060000
                    }
                }
            }
        }
    }
}
MOTION
Frames: 7
Frame Time:   0.008333
 -2.316276   0.875073   5.603454 -12.368320  -3.215049   1.961917  12.486432   2.405686  -5.219565   5.275721   0.203434  -2.201948   1.866294  -3.248966   2.615946  -0.850625   2.750110   8.113612  -2.020894   7.277656  43.462318  -0.002912  26.260517  -0.006455   3.128249   3.736384  -2.043591   3.919134   3.609839  -9.070785   7.393087  -0.423179 -48.159774  -0.000180 -12.330653   0.000069   2.026799  -1.474085   0.021768  12.890644  -6.897364  -6.540322  61.436546  -0.021839  -0.035741   9.830971  -2.976231   4.160299 -20.430213   0.007740  -0.091903 -13.485027   1.271222  -1.021342  30.961046   0.001373  -0.003092  -6.557024  10.833853   6.506630  -0.591457  -0.003119  -0.002359
 -2.315609   0.877821   5.615729 -12.559339  -3.249119   2.010512  12.493311   2.225661  -5.190253   5.214516   0.203920  -2.181171   1.882527  -3.302100   2.566503  -0.731994   2.645221   8.176464  -1.682354   7.127252  43.700663  -0.004126  25.665551  -0.006272   3.163091   3.776764  -1.925926   3.956003   3.598019  -9.078991   7.329592  -0.421397 -48.152648  -0.000383 -12.509753   0.000083   2.016446  -1.376526   0.040173  11.649790  -7.129950  -6.863417  63.514254  -0.024603  -0.032620   9.333825  -3.855220   4.048980 -18.526136   0.005758  -0.092301 -12.160783   1.320681  -1.199746  30.519131   0.000729  -0.002367  -6.918885  10.657297   6.700942  -0.377901  -0.002783  -0.002305
 -2.315066   0.880833   5.627721 -12.726850  -3.318566   2.007262  12.513201   2.041604  -5.117388   5.168383   0.196330  -2.142874   1.903133  -3.348970   2.517697  -0.604694   2.541065   8.222998  -1.350848   6.979436  43.928441  -0.005031  25.099743  -0.006100   3.199326   3.756820  -1.746805   3.971459   3.575464  -9.087237   7.252849  -0.437435 -48.159613  -0.000561 -12.694255   0.000215   2.008145  -1.384678   0.039712  10.294494  -7.349990  -7.124257  65.315015  -0.026906  -0.029192   8.840104  -4.678231   3.933444 -16.907957   0.002082  -0.088732 -10.776675   1.352064  -1.320497  29.899331   0.000164  -0.001590  -7.339699  10.489997   6.888802  -0.195716  -0.002442  -0.002207
 -2.314627   0.883857   5.639538 -12.887220  -3.399877   1.966750  12.543540   1.842850  -5.017053   5.136848   0.167111  -2.085003   1.926327  -3.392477   2.474495  -0.475407   2.430295   8.252167  -1.031888   6.833584  44.137833  -0.005523  24.567873  -0.006059   3.233785   3.709968  -1.553176   3.978059   3.547206  -9.084718   7.174512  -0.459029 -48.168014  -0.000731 -12.872327   0.000416   2.000255  -1.437850   0.027362   8.877893  -7.558435  -7.338778  66.929128  -0.028412  -0.025710   8.372368  -5.444163   3.817811 -15.438847  -0.001899  -0.083401  -9.367542   1.363542  -1.400923  29.195944  -0.000269  -0.000834  -7.782954  10.330132   7.071113  -0.036256  -0.002132  -0.002086
 -2.314276   0.886735   5.651257 -13.048019  -3.481671   1.901820  12.579507   1.629394  -4.900000   5.118161   0.115792  -2.012066   1.951096  -3.433433   2.436578  -0.344565   2.311119   8.265125  -0.724915   6.688062  44.326959  -0.005669  24.067608  -0.006119   3.266191   3.643926  -1.366432   3.980699   3.516629  -9.067462   7.098474  -0.481702 -48.170502  -0.000893 -13.041083   0.000632   1.993165  -1.507507   0.017401   7.441683  -7.753026  -7.521944  68.395453  -0.029023  -0.022340   7.931217  -6.157239   3.703372 -14.100255  -0.005473  -0.077035  -7.955868   1.360970  -1.453328  28.467838  -0.000580  -0.000184  -8.227814  10.177623   7.245819   0.105204  -0.001860  -0.001948
 -2.314016   0.889437   5.662870 -13.204769  -3.510949   1.841830  12.619127   1.386966  -4.785026   5.108891   0.031961  -1.930314   1.975928  -3.472850   2.403395  -0.210064   2.181567   8.270118  -0.427568   6.540660  44.498975  -0.005615  23.595538  -0.006141   3.296051   3.555670  -1.196001   3.975433   3.478512  -9.034177   7.021359  -0.507562 -48.160923  -0.001042 -13.201274   0.000817   1.987222  -1.586579   0.023593   6.012557  -7.941021  -7.685039  69.731929  -0.028404  -0.018883   7.516226  -6.821232   3.591293 -12.878323  -0.008025  -0.069864  -6.560483   1.379282  -1.488684  27.746164  -0.000885  -0.000161  -8.777002  10.072056   7.413949   0.240943  -0.001607  -0.001663
 -2.313833   0.891888   5.674409 -13.356941  -3.478231   1.786689  12.657340   1.124171  -4.665832   5.106353  -0.079604  -1.842236   2.000724  -3.510476   2.373323  -0.071116   2.041454   8.264739  -0.138333   6.390767  44.654052  -0.005429  23.149468  -0.006078   3.323746   3.444149  -1.039863   3.963326   3.434596  -8.987146   6.943545  -0.536237 -48.142096  -0.001171 -13.353704   0.000943   1.982342  -1.675552   0.045550   4.611787  -8.116520  -7.830531  70.957500  -0.026738  -0.015515   7.126253  -7.439812   3.482019 -11.762985  -0.009471  -0.062387  -5.194636   1.406375  -1.507972  27.038335  -0.001165  -0.000604  -9.311525   9.985100   7.571230   0.355792  -0.001380  -0.001326
